<mxfile host="drawio-plugin" modified="2022-10-27T23:32:25.480Z" agent="5.0 (Windows NT 6.2; Win64; x64) AppleWebKit/537.36 (KHTML, like Gecko) Chrome/98.0.4758.102 Safari/537.36" etag="bdIbIdFwsXlV_wYO2c46" version="15.5.4" type="embed"><diagram id="bUmCLk0_VhVP07BTgJRH" name="Página-1"><mxGraphModel dx="1622" dy="1989" grid="1" gridSize="10" guides="1" tooltips="1" connect="1" arrows="1" fold="1" page="1" pageScale="1" pageWidth="827" pageHeight="1169" math="0" shadow="0"><root><mxCell id="0"/><mxCell id="1" parent="0"/><mxCell id="ez0pkihPe1-qTAPwtO0r-78" value="" style="rounded=0;whiteSpace=wrap;html=1;fillColor=none;" parent="1" vertex="1"><mxGeometry x="1690" y="-16" width="910" height="705" as="geometry"/></mxCell><mxCell id="Av2QNb6P9Yulk9unb7GA-71" value="" style="group" parent="1" vertex="1" connectable="0"><mxGeometry x="40" y="639" width="1510" height="530" as="geometry"/></mxCell><mxCell id="Av2QNb6P9Yulk9unb7GA-57" value="" style="group" parent="Av2QNb6P9Yulk9unb7GA-71" vertex="1" connectable="0"><mxGeometry width="1510" height="530" as="geometry"/></mxCell><mxCell id="Av2QNb6P9Yulk9unb7GA-55" value="" style="rounded=0;whiteSpace=wrap;html=1;fillColor=none;" parent="Av2QNb6P9Yulk9unb7GA-57" vertex="1"><mxGeometry width="1510" height="530" as="geometry"/></mxCell><mxCell id="Av2QNb6P9Yulk9unb7GA-52" value="Endpoints" style="text;strokeColor=none;fillColor=none;html=1;fontSize=24;fontStyle=1;verticalAlign=middle;align=center;" parent="Av2QNb6P9Yulk9unb7GA-57" vertex="1"><mxGeometry x="20" y="13" width="140" height="40" as="geometry"/></mxCell><mxCell id="Av2QNb6P9Yulk9unb7GA-12" value="/users" style="rounded=0;whiteSpace=wrap;html=1;" parent="Av2QNb6P9Yulk9unb7GA-71" vertex="1"><mxGeometry x="20" y="193" width="120" height="60" as="geometry"/></mxCell><mxCell id="Av2QNb6P9Yulk9unb7GA-13" value="GET&lt;br&gt;/{id}" style="rounded=0;whiteSpace=wrap;html=1;" parent="Av2QNb6P9Yulk9unb7GA-71" vertex="1"><mxGeometry x="220" y="73" width="120" height="60" as="geometry"/></mxCell><mxCell id="Av2QNb6P9Yulk9unb7GA-17" style="edgeStyle=orthogonalEdgeStyle;rounded=0;orthogonalLoop=1;jettySize=auto;html=1;entryX=0;entryY=0.5;entryDx=0;entryDy=0;" parent="Av2QNb6P9Yulk9unb7GA-71" source="Av2QNb6P9Yulk9unb7GA-12" target="Av2QNb6P9Yulk9unb7GA-13" edge="1"><mxGeometry relative="1" as="geometry"/></mxCell><mxCell id="Av2QNb6P9Yulk9unb7GA-14" value="POST&lt;br&gt;/" style="rounded=0;whiteSpace=wrap;html=1;" parent="Av2QNb6P9Yulk9unb7GA-71" vertex="1"><mxGeometry x="220" y="153" width="120" height="60" as="geometry"/></mxCell><mxCell id="Av2QNb6P9Yulk9unb7GA-18" style="edgeStyle=orthogonalEdgeStyle;rounded=0;orthogonalLoop=1;jettySize=auto;html=1;" parent="Av2QNb6P9Yulk9unb7GA-71" source="Av2QNb6P9Yulk9unb7GA-12" target="Av2QNb6P9Yulk9unb7GA-14" edge="1"><mxGeometry relative="1" as="geometry"/></mxCell><mxCell id="Av2QNb6P9Yulk9unb7GA-15" value="DELETE&lt;br&gt;/{id}" style="rounded=0;whiteSpace=wrap;html=1;" parent="Av2QNb6P9Yulk9unb7GA-71" vertex="1"><mxGeometry x="220" y="233" width="120" height="60" as="geometry"/></mxCell><mxCell id="Av2QNb6P9Yulk9unb7GA-19" style="edgeStyle=orthogonalEdgeStyle;rounded=0;orthogonalLoop=1;jettySize=auto;html=1;entryX=0;entryY=0.5;entryDx=0;entryDy=0;" parent="Av2QNb6P9Yulk9unb7GA-71" source="Av2QNb6P9Yulk9unb7GA-12" target="Av2QNb6P9Yulk9unb7GA-15" edge="1"><mxGeometry relative="1" as="geometry"/></mxCell><mxCell id="Av2QNb6P9Yulk9unb7GA-16" value="PATCH&lt;br&gt;/{id}" style="rounded=0;whiteSpace=wrap;html=1;" parent="Av2QNb6P9Yulk9unb7GA-71" vertex="1"><mxGeometry x="220" y="313" width="120" height="60" as="geometry"/></mxCell><mxCell id="Av2QNb6P9Yulk9unb7GA-20" style="edgeStyle=orthogonalEdgeStyle;rounded=0;orthogonalLoop=1;jettySize=auto;html=1;entryX=0;entryY=0.5;entryDx=0;entryDy=0;" parent="Av2QNb6P9Yulk9unb7GA-71" source="Av2QNb6P9Yulk9unb7GA-12" target="Av2QNb6P9Yulk9unb7GA-16" edge="1"><mxGeometry relative="1" as="geometry"/></mxCell><mxCell id="Av2QNb6P9Yulk9unb7GA-25" value="/games" style="rounded=0;whiteSpace=wrap;html=1;" parent="Av2QNb6P9Yulk9unb7GA-71" vertex="1"><mxGeometry x="450" y="193" width="120" height="60" as="geometry"/></mxCell><mxCell id="Av2QNb6P9Yulk9unb7GA-26" value="GET&lt;br&gt;/{id}" style="rounded=0;whiteSpace=wrap;html=1;" parent="Av2QNb6P9Yulk9unb7GA-71" vertex="1"><mxGeometry x="650" y="73" width="120" height="60" as="geometry"/></mxCell><mxCell id="Av2QNb6P9Yulk9unb7GA-21" style="edgeStyle=orthogonalEdgeStyle;rounded=0;orthogonalLoop=1;jettySize=auto;html=1;entryX=0;entryY=0.5;entryDx=0;entryDy=0;" parent="Av2QNb6P9Yulk9unb7GA-71" source="Av2QNb6P9Yulk9unb7GA-25" target="Av2QNb6P9Yulk9unb7GA-26" edge="1"><mxGeometry relative="1" as="geometry"/></mxCell><mxCell id="Av2QNb6P9Yulk9unb7GA-27" value="POST&lt;br&gt;/" style="rounded=0;whiteSpace=wrap;html=1;" parent="Av2QNb6P9Yulk9unb7GA-71" vertex="1"><mxGeometry x="650" y="153" width="120" height="60" as="geometry"/></mxCell><mxCell id="Av2QNb6P9Yulk9unb7GA-22" style="edgeStyle=orthogonalEdgeStyle;rounded=0;orthogonalLoop=1;jettySize=auto;html=1;" parent="Av2QNb6P9Yulk9unb7GA-71" source="Av2QNb6P9Yulk9unb7GA-25" target="Av2QNb6P9Yulk9unb7GA-27" edge="1"><mxGeometry relative="1" as="geometry"/></mxCell><mxCell id="Av2QNb6P9Yulk9unb7GA-28" value="DELETE&lt;br&gt;/{id}" style="rounded=0;whiteSpace=wrap;html=1;" parent="Av2QNb6P9Yulk9unb7GA-71" vertex="1"><mxGeometry x="650" y="233" width="120" height="60" as="geometry"/></mxCell><mxCell id="Av2QNb6P9Yulk9unb7GA-23" style="edgeStyle=orthogonalEdgeStyle;rounded=0;orthogonalLoop=1;jettySize=auto;html=1;entryX=0;entryY=0.5;entryDx=0;entryDy=0;" parent="Av2QNb6P9Yulk9unb7GA-71" source="Av2QNb6P9Yulk9unb7GA-25" target="Av2QNb6P9Yulk9unb7GA-28" edge="1"><mxGeometry relative="1" as="geometry"/></mxCell><mxCell id="Av2QNb6P9Yulk9unb7GA-29" value="PATCH&lt;br&gt;/{id}" style="rounded=0;whiteSpace=wrap;html=1;" parent="Av2QNb6P9Yulk9unb7GA-71" vertex="1"><mxGeometry x="650" y="313" width="120" height="60" as="geometry"/></mxCell><mxCell id="Av2QNb6P9Yulk9unb7GA-24" style="edgeStyle=orthogonalEdgeStyle;rounded=0;orthogonalLoop=1;jettySize=auto;html=1;entryX=0;entryY=0.5;entryDx=0;entryDy=0;" parent="Av2QNb6P9Yulk9unb7GA-71" source="Av2QNb6P9Yulk9unb7GA-25" target="Av2QNb6P9Yulk9unb7GA-29" edge="1"><mxGeometry relative="1" as="geometry"/></mxCell><mxCell id="Av2QNb6P9Yulk9unb7GA-34" value="/reviews" style="rounded=0;whiteSpace=wrap;html=1;" parent="Av2QNb6P9Yulk9unb7GA-71" vertex="1"><mxGeometry x="850" y="193" width="120" height="60" as="geometry"/></mxCell><mxCell id="Av2QNb6P9Yulk9unb7GA-35" value="GET&lt;br&gt;/{id}" style="rounded=0;whiteSpace=wrap;html=1;" parent="Av2QNb6P9Yulk9unb7GA-71" vertex="1"><mxGeometry x="1050" y="73" width="120" height="60" as="geometry"/></mxCell><mxCell id="Av2QNb6P9Yulk9unb7GA-30" style="edgeStyle=orthogonalEdgeStyle;rounded=0;orthogonalLoop=1;jettySize=auto;html=1;entryX=0;entryY=0.5;entryDx=0;entryDy=0;" parent="Av2QNb6P9Yulk9unb7GA-71" source="Av2QNb6P9Yulk9unb7GA-34" target="Av2QNb6P9Yulk9unb7GA-35" edge="1"><mxGeometry relative="1" as="geometry"/></mxCell><mxCell id="Av2QNb6P9Yulk9unb7GA-36" value="POST&lt;br&gt;/" style="rounded=0;whiteSpace=wrap;html=1;" parent="Av2QNb6P9Yulk9unb7GA-71" vertex="1"><mxGeometry x="1050" y="153" width="120" height="60" as="geometry"/></mxCell><mxCell id="Av2QNb6P9Yulk9unb7GA-31" style="edgeStyle=orthogonalEdgeStyle;rounded=0;orthogonalLoop=1;jettySize=auto;html=1;" parent="Av2QNb6P9Yulk9unb7GA-71" source="Av2QNb6P9Yulk9unb7GA-34" target="Av2QNb6P9Yulk9unb7GA-36" edge="1"><mxGeometry relative="1" as="geometry"/></mxCell><mxCell id="Av2QNb6P9Yulk9unb7GA-37" value="DELETE&lt;br&gt;/{id}" style="rounded=0;whiteSpace=wrap;html=1;" parent="Av2QNb6P9Yulk9unb7GA-71" vertex="1"><mxGeometry x="1050" y="233" width="120" height="60" as="geometry"/></mxCell><mxCell id="Av2QNb6P9Yulk9unb7GA-32" style="edgeStyle=orthogonalEdgeStyle;rounded=0;orthogonalLoop=1;jettySize=auto;html=1;entryX=0;entryY=0.5;entryDx=0;entryDy=0;" parent="Av2QNb6P9Yulk9unb7GA-71" source="Av2QNb6P9Yulk9unb7GA-34" target="Av2QNb6P9Yulk9unb7GA-37" edge="1"><mxGeometry relative="1" as="geometry"/></mxCell><mxCell id="Av2QNb6P9Yulk9unb7GA-38" value="PATCH&lt;br&gt;/{id}" style="rounded=0;whiteSpace=wrap;html=1;" parent="Av2QNb6P9Yulk9unb7GA-71" vertex="1"><mxGeometry x="1050" y="313" width="120" height="60" as="geometry"/></mxCell><mxCell id="Av2QNb6P9Yulk9unb7GA-33" style="edgeStyle=orthogonalEdgeStyle;rounded=0;orthogonalLoop=1;jettySize=auto;html=1;entryX=0;entryY=0.5;entryDx=0;entryDy=0;" parent="Av2QNb6P9Yulk9unb7GA-71" source="Av2QNb6P9Yulk9unb7GA-34" target="Av2QNb6P9Yulk9unb7GA-38" edge="1"><mxGeometry relative="1" as="geometry"/></mxCell><mxCell id="Av2QNb6P9Yulk9unb7GA-39" value="GET&lt;br&gt;/filter" style="rounded=0;whiteSpace=wrap;html=1;" parent="Av2QNb6P9Yulk9unb7GA-71" vertex="1"><mxGeometry x="1050" y="393" width="120" height="60" as="geometry"/></mxCell><mxCell id="Av2QNb6P9Yulk9unb7GA-43" style="edgeStyle=orthogonalEdgeStyle;rounded=0;orthogonalLoop=1;jettySize=auto;html=1;entryX=0;entryY=0.5;entryDx=0;entryDy=0;" parent="Av2QNb6P9Yulk9unb7GA-71" source="Av2QNb6P9Yulk9unb7GA-34" target="Av2QNb6P9Yulk9unb7GA-39" edge="1"><mxGeometry relative="1" as="geometry"/></mxCell><mxCell id="Av2QNb6P9Yulk9unb7GA-41" value="/game" style="rounded=0;whiteSpace=wrap;html=1;" parent="Av2QNb6P9Yulk9unb7GA-71" vertex="1"><mxGeometry x="1214" y="353" width="120" height="60" as="geometry"/></mxCell><mxCell id="Av2QNb6P9Yulk9unb7GA-44" style="edgeStyle=orthogonalEdgeStyle;rounded=0;orthogonalLoop=1;jettySize=auto;html=1;entryX=0;entryY=0.5;entryDx=0;entryDy=0;" parent="Av2QNb6P9Yulk9unb7GA-71" source="Av2QNb6P9Yulk9unb7GA-39" target="Av2QNb6P9Yulk9unb7GA-41" edge="1"><mxGeometry relative="1" as="geometry"/></mxCell><mxCell id="Av2QNb6P9Yulk9unb7GA-42" value="/user" style="rounded=0;whiteSpace=wrap;html=1;" parent="Av2QNb6P9Yulk9unb7GA-71" vertex="1"><mxGeometry x="1214" y="433" width="120" height="60" as="geometry"/></mxCell><mxCell id="Av2QNb6P9Yulk9unb7GA-45" style="edgeStyle=orthogonalEdgeStyle;rounded=0;orthogonalLoop=1;jettySize=auto;html=1;entryX=0;entryY=0.5;entryDx=0;entryDy=0;" parent="Av2QNb6P9Yulk9unb7GA-71" source="Av2QNb6P9Yulk9unb7GA-39" target="Av2QNb6P9Yulk9unb7GA-42" edge="1"><mxGeometry relative="1" as="geometry"/></mxCell><mxCell id="Av2QNb6P9Yulk9unb7GA-46" value="/{id}" style="rounded=0;whiteSpace=wrap;html=1;" parent="Av2QNb6P9Yulk9unb7GA-71" vertex="1"><mxGeometry x="1360" y="353" width="120" height="60" as="geometry"/></mxCell><mxCell id="Av2QNb6P9Yulk9unb7GA-49" style="edgeStyle=orthogonalEdgeStyle;rounded=0;orthogonalLoop=1;jettySize=auto;html=1;" parent="Av2QNb6P9Yulk9unb7GA-71" source="Av2QNb6P9Yulk9unb7GA-41" target="Av2QNb6P9Yulk9unb7GA-46" edge="1"><mxGeometry relative="1" as="geometry"/></mxCell><mxCell id="Av2QNb6P9Yulk9unb7GA-47" value="/{id}" style="rounded=0;whiteSpace=wrap;html=1;" parent="Av2QNb6P9Yulk9unb7GA-71" vertex="1"><mxGeometry x="1360" y="433" width="120" height="60" as="geometry"/></mxCell><mxCell id="Av2QNb6P9Yulk9unb7GA-48" style="edgeStyle=orthogonalEdgeStyle;rounded=0;orthogonalLoop=1;jettySize=auto;html=1;" parent="Av2QNb6P9Yulk9unb7GA-71" source="Av2QNb6P9Yulk9unb7GA-42" target="Av2QNb6P9Yulk9unb7GA-47" edge="1"><mxGeometry relative="1" as="geometry"/></mxCell><mxCell id="ez0pkihPe1-qTAPwtO0r-2" value="" style="rounded=0;whiteSpace=wrap;html=1;fillColor=none;" parent="1" vertex="1"><mxGeometry x="50" y="1245" width="1240" height="875" as="geometry"/></mxCell><mxCell id="ez0pkihPe1-qTAPwtO0r-3" value="User Actions" style="text;strokeColor=none;fillColor=none;html=1;fontSize=24;fontStyle=1;verticalAlign=middle;align=center;" parent="1" vertex="1"><mxGeometry x="60" y="1260" width="190" height="40" as="geometry"/></mxCell><mxCell id="Av2QNb6P9Yulk9unb7GA-68" value="" style="rounded=0;whiteSpace=wrap;html=1;fillColor=none;" parent="1" vertex="1"><mxGeometry x="40" y="40" width="700" height="550" as="geometry"/></mxCell><mxCell id="Av2QNb6P9Yulk9unb7GA-69" value="Entities" style="text;strokeColor=none;fillColor=none;html=1;fontSize=24;fontStyle=1;verticalAlign=middle;align=center;" parent="1" vertex="1"><mxGeometry x="50" y="53" width="140" height="40" as="geometry"/></mxCell><mxCell id="Av2QNb6P9Yulk9unb7GA-64" value="Review" style="swimlane;childLayout=stackLayout;horizontal=1;startSize=30;horizontalStack=0;rounded=1;fontSize=22;fontStyle=0;strokeWidth=2;resizeParent=0;resizeLast=1;shadow=0;dashed=0;align=center;" parent="1" vertex="1"><mxGeometry x="80" y="93" width="360" height="487" as="geometry"/></mxCell><mxCell id="Av2QNb6P9Yulk9unb7GA-65" value="- id: Long&#10;- steam_appid: Long&#10;- authorid: Long&#10;- review_id: Long&#10;- language (region): String&#10;- review: String&#10;- timestamp_created: Long&#10;- timestamp_updated: Long&#10;- recommended: Boolean&#10;- votes_helpful: Long&#10;- votes_funny: Long&#10;- weighted_vote_score: Double&#10;- comment_count: Long&#10;- steam_purchase: Boolean&#10;- received_for_free: Boolean&#10;- written_during_early_access: Boolean&#10;- author_playtime_forever: Double&#10;- author_playtime_last_two_weeks: Double&#10;- author_playtime_at_review: Double&#10;- author_last_played: Long" style="align=left;strokeColor=none;fillColor=none;spacingLeft=4;fontSize=18;verticalAlign=top;resizable=0;rotatable=0;part=1;" parent="Av2QNb6P9Yulk9unb7GA-64" vertex="1"><mxGeometry y="30" width="360" height="457" as="geometry"/></mxCell><mxCell id="Av2QNb6P9Yulk9unb7GA-62" value="User" style="swimlane;childLayout=stackLayout;horizontal=1;startSize=30;horizontalStack=0;rounded=1;fontSize=22;fontStyle=0;strokeWidth=2;resizeParent=0;resizeLast=1;shadow=0;dashed=0;align=center;" parent="1" vertex="1"><mxGeometry x="470" y="93" width="235.2" height="147" as="geometry"><mxRectangle x="560" y="30" width="80" height="30" as="alternateBounds"/></mxGeometry></mxCell><mxCell id="Av2QNb6P9Yulk9unb7GA-63" value="- authorid: Long&#10;- name: String&#10;- num_games_owned: Int&#10;- num_reviews: Int" style="align=left;strokeColor=none;fillColor=none;spacingLeft=4;fontSize=18;verticalAlign=top;resizable=0;rotatable=0;part=1;" parent="Av2QNb6P9Yulk9unb7GA-62" vertex="1"><mxGeometry y="30" width="235.2" height="117" as="geometry"/></mxCell><mxCell id="Av2QNb6P9Yulk9unb7GA-60" value="Game" style="swimlane;childLayout=stackLayout;horizontal=1;startSize=30;horizontalStack=0;rounded=1;fontSize=22;fontStyle=0;strokeWidth=2;resizeParent=0;resizeLast=1;shadow=0;dashed=0;align=center;" parent="1" vertex="1"><mxGeometry x="473.47" y="270" width="228.27" height="107" as="geometry"/></mxCell><mxCell id="Av2QNb6P9Yulk9unb7GA-61" value="- steam_appid: Long&#10;- steam_appname: String" style="align=left;strokeColor=none;fillColor=none;spacingLeft=4;fontSize=18;verticalAlign=top;resizable=0;rotatable=0;part=1;" parent="Av2QNb6P9Yulk9unb7GA-60" vertex="1"><mxGeometry y="30" width="228.27" height="77" as="geometry"/></mxCell><mxCell id="ez0pkihPe1-qTAPwtO0r-43" value="Actors diagram" style="text;strokeColor=none;fillColor=none;html=1;fontSize=24;fontStyle=1;verticalAlign=middle;align=center;" parent="1" vertex="1"><mxGeometry x="1730" y="58" width="290" height="40" as="geometry"/></mxCell><mxCell id="ez0pkihPe1-qTAPwtO0r-44" value="GameActor" style="shape=umlActor;verticalLabelPosition=bottom;verticalAlign=top;html=1;outlineConnect=0;" parent="1" vertex="1"><mxGeometry x="2448" y="272" width="50" height="100" as="geometry"/></mxCell><mxCell id="ez0pkihPe1-qTAPwtO0r-45" style="edgeStyle=orthogonalEdgeStyle;rounded=0;orthogonalLoop=1;jettySize=auto;html=1;" parent="1" edge="1" source="7"><mxGeometry relative="1" as="geometry"><mxPoint x="2088" y="287" as="sourcePoint"/><mxPoint x="2200" y="322" as="targetPoint"/></mxGeometry></mxCell><mxCell id="11" style="edgeStyle=orthogonalEdgeStyle;rounded=0;orthogonalLoop=1;jettySize=auto;html=1;" edge="1" parent="1" source="ez0pkihPe1-qTAPwtO0r-46" target="7"><mxGeometry relative="1" as="geometry"/></mxCell><mxCell id="12" style="edgeStyle=orthogonalEdgeStyle;rounded=0;orthogonalLoop=1;jettySize=auto;html=1;entryX=0;entryY=0.3333333333333333;entryDx=0;entryDy=0;entryPerimeter=0;" edge="1" parent="1" source="ez0pkihPe1-qTAPwtO0r-46" target="8"><mxGeometry relative="1" as="geometry"><Array as="points"><mxPoint x="1825" y="138"/></Array></mxGeometry></mxCell><mxCell id="ez0pkihPe1-qTAPwtO0r-46" value="Akka HTTP" style="shape=umlActor;verticalLabelPosition=bottom;verticalAlign=top;html=1;outlineConnect=0;" parent="1" vertex="1"><mxGeometry x="1800" y="272" width="50" height="100" as="geometry"/></mxCell><mxCell id="ez0pkihPe1-qTAPwtO0r-50" style="edgeStyle=orthogonalEdgeStyle;rounded=0;orthogonalLoop=1;jettySize=auto;html=1;" parent="1" source="ez0pkihPe1-qTAPwtO0r-51" target="ez0pkihPe1-qTAPwtO0r-44" edge="1"><mxGeometry relative="1" as="geometry"/></mxCell><mxCell id="ez0pkihPe1-qTAPwtO0r-51" value="GameManagerActor" style="shape=umlActor;verticalLabelPosition=bottom;verticalAlign=top;html=1;outlineConnect=0;" parent="1" vertex="1"><mxGeometry x="2208" y="272" width="50" height="100" as="geometry"/></mxCell><mxCell id="ez0pkihPe1-qTAPwtO0r-52" style="edgeStyle=orthogonalEdgeStyle;rounded=0;orthogonalLoop=1;jettySize=auto;html=1;" parent="1" source="ez0pkihPe1-qTAPwtO0r-53" target="ez0pkihPe1-qTAPwtO0r-57" edge="1"><mxGeometry relative="1" as="geometry"/></mxCell><mxCell id="ez0pkihPe1-qTAPwtO0r-53" value="UserManagerActor" style="shape=umlActor;verticalLabelPosition=bottom;verticalAlign=top;html=1;outlineConnect=0;" parent="1" vertex="1"><mxGeometry x="2208" y="105" width="50" height="100" as="geometry"/></mxCell><mxCell id="ez0pkihPe1-qTAPwtO0r-54" style="edgeStyle=orthogonalEdgeStyle;rounded=0;orthogonalLoop=1;jettySize=auto;html=1;entryX=0.5;entryY=0.5;entryDx=0;entryDy=0;entryPerimeter=0;" parent="1" source="ez0pkihPe1-qTAPwtO0r-55" target="ez0pkihPe1-qTAPwtO0r-56" edge="1"><mxGeometry relative="1" as="geometry"/></mxCell><mxCell id="ez0pkihPe1-qTAPwtO0r-55" value="ReviewManagerActor" style="shape=umlActor;verticalLabelPosition=bottom;verticalAlign=top;html=1;outlineConnect=0;" parent="1" vertex="1"><mxGeometry x="2208" y="442" width="50" height="100" as="geometry"/></mxCell><mxCell id="ez0pkihPe1-qTAPwtO0r-56" value="ReviewActor" style="shape=umlActor;verticalLabelPosition=bottom;verticalAlign=top;html=1;outlineConnect=0;" parent="1" vertex="1"><mxGeometry x="2448" y="442" width="50" height="100" as="geometry"/></mxCell><mxCell id="ez0pkihPe1-qTAPwtO0r-57" value="UserActor" style="shape=umlActor;verticalLabelPosition=bottom;verticalAlign=top;html=1;outlineConnect=0;" parent="1" vertex="1"><mxGeometry x="2448" y="105" width="50" height="100" as="geometry"/></mxCell><mxCell id="ez0pkihPe1-qTAPwtO0r-58" value="" style="endArrow=classic;html=1;rounded=0;" parent="1" target="ez0pkihPe1-qTAPwtO0r-55" edge="1" source="7"><mxGeometry width="50" height="50" relative="1" as="geometry"><mxPoint x="2068" y="347" as="sourcePoint"/><mxPoint x="1798" y="472" as="targetPoint"/><Array as="points"><mxPoint x="2128" y="322"/><mxPoint x="2128" y="492"/></Array></mxGeometry></mxCell><mxCell id="ez0pkihPe1-qTAPwtO0r-59" value="" style="endArrow=classic;html=1;rounded=0;" parent="1" target="ez0pkihPe1-qTAPwtO0r-53" edge="1" source="7"><mxGeometry width="50" height="50" relative="1" as="geometry"><mxPoint x="2078" y="347" as="sourcePoint"/><mxPoint x="2188" y="172" as="targetPoint"/><Array as="points"><mxPoint x="2128" y="322"/><mxPoint x="2128" y="155"/></Array></mxGeometry></mxCell><mxCell id="ez0pkihPe1-qTAPwtO0r-99" style="edgeStyle=orthogonalEdgeStyle;rounded=0;orthogonalLoop=1;jettySize=auto;html=1;entryX=0;entryY=0.5;entryDx=0;entryDy=0;fontSize=18;" parent="1" source="ez0pkihPe1-qTAPwtO0r-83" target="ez0pkihPe1-qTAPwtO0r-84" edge="1"><mxGeometry relative="1" as="geometry"/></mxCell><mxCell id="ez0pkihPe1-qTAPwtO0r-83" value="&lt;font style=&quot;font-size: 18px;&quot;&gt;GetUserInfo: userId&lt;/font&gt;" style="rounded=0;whiteSpace=wrap;html=1;" parent="1" vertex="1"><mxGeometry x="690" y="1350" width="195" height="70" as="geometry"/></mxCell><mxCell id="ez0pkihPe1-qTAPwtO0r-84" value="&lt;font style=&quot;font-size: 18px;&quot;&gt;GetUserInfoResponse: UserState &lt;br&gt;(User Entity)&lt;/font&gt;" style="rounded=0;whiteSpace=wrap;html=1;" parent="1" vertex="1"><mxGeometry x="920" y="1350" width="325" height="70" as="geometry"/></mxCell><mxCell id="ez0pkihPe1-qTAPwtO0r-98" style="edgeStyle=orthogonalEdgeStyle;rounded=0;orthogonalLoop=1;jettySize=auto;html=1;fontSize=18;" parent="1" source="ez0pkihPe1-qTAPwtO0r-85" target="ez0pkihPe1-qTAPwtO0r-83" edge="1"><mxGeometry relative="1" as="geometry"/></mxCell><mxCell id="ez0pkihPe1-qTAPwtO0r-85" value="&lt;font style=&quot;font-size: 18px;&quot;&gt;GetUserInfoRequest: userId&lt;/font&gt;" style="rounded=0;whiteSpace=wrap;html=1;" parent="1" vertex="1"><mxGeometry x="390" y="1350" width="270" height="70" as="geometry"/></mxCell><mxCell id="ez0pkihPe1-qTAPwtO0r-86" value="Method: GET&lt;br&gt;Action: Get user data&lt;br&gt;Requires:&amp;nbsp;&lt;br&gt;- userId: Long&lt;br&gt;Returns: UserState" style="text;html=1;strokeColor=none;fillColor=none;align=left;verticalAlign=middle;whiteSpace=wrap;rounded=0;fontSize=18;" parent="1" vertex="1"><mxGeometry x="80" y="1330" width="290" height="110" as="geometry"/></mxCell><mxCell id="ez0pkihPe1-qTAPwtO0r-101" style="edgeStyle=orthogonalEdgeStyle;rounded=0;orthogonalLoop=1;jettySize=auto;html=1;fontSize=18;" parent="1" source="ez0pkihPe1-qTAPwtO0r-87" target="ez0pkihPe1-qTAPwtO0r-88" edge="1"><mxGeometry relative="1" as="geometry"/></mxCell><mxCell id="ez0pkihPe1-qTAPwtO0r-87" value="&lt;font style=&quot;font-size: 18px;&quot;&gt;CreateUser: UserState&lt;/font&gt;" style="rounded=0;whiteSpace=wrap;html=1;" parent="1" vertex="1"><mxGeometry x="690" y="1545" width="195" height="70" as="geometry"/></mxCell><mxCell id="ez0pkihPe1-qTAPwtO0r-88" value="&lt;font style=&quot;font-size: 18px;&quot;&gt;CreatedUserResponse: ???&lt;br&gt;&lt;/font&gt;" style="rounded=0;whiteSpace=wrap;html=1;" parent="1" vertex="1"><mxGeometry x="920" y="1545" width="325" height="70" as="geometry"/></mxCell><mxCell id="ez0pkihPe1-qTAPwtO0r-100" style="edgeStyle=orthogonalEdgeStyle;rounded=0;orthogonalLoop=1;jettySize=auto;html=1;fontSize=18;" parent="1" source="ez0pkihPe1-qTAPwtO0r-89" target="ez0pkihPe1-qTAPwtO0r-87" edge="1"><mxGeometry relative="1" as="geometry"/></mxCell><mxCell id="ez0pkihPe1-qTAPwtO0r-89" value="&lt;font style=&quot;font-size: 18px;&quot;&gt;CreateUserRequest: &lt;br&gt;name, numGamesOwned, numReviews&lt;/font&gt;" style="rounded=0;whiteSpace=wrap;html=1;" parent="1" vertex="1"><mxGeometry x="390" y="1545" width="270" height="70" as="geometry"/></mxCell><mxCell id="ez0pkihPe1-qTAPwtO0r-90" value="Method: POST&lt;br&gt;Action: Submit user&lt;br&gt;Requires:&amp;nbsp;&lt;br&gt;- name: String&lt;br&gt;Optional:&lt;br&gt;- numGamesOwned: Int&lt;br&gt;- numReviews: Int&lt;br&gt;Returns: ???" style="text;html=1;strokeColor=none;fillColor=none;align=left;verticalAlign=middle;whiteSpace=wrap;rounded=0;fontSize=18;" parent="1" vertex="1"><mxGeometry x="80" y="1490" width="290" height="180" as="geometry"/></mxCell><mxCell id="ez0pkihPe1-qTAPwtO0r-104" style="edgeStyle=orthogonalEdgeStyle;rounded=0;orthogonalLoop=1;jettySize=auto;html=1;fontSize=18;" parent="1" source="ez0pkihPe1-qTAPwtO0r-94" target="ez0pkihPe1-qTAPwtO0r-95" edge="1"><mxGeometry relative="1" as="geometry"/></mxCell><mxCell id="ez0pkihPe1-qTAPwtO0r-94" value="&lt;font style=&quot;font-size: 18px;&quot;&gt;DeleteUser: userId&lt;/font&gt;" style="rounded=0;whiteSpace=wrap;html=1;" parent="1" vertex="1"><mxGeometry x="690" y="1735" width="195" height="70" as="geometry"/></mxCell><mxCell id="ez0pkihPe1-qTAPwtO0r-95" value="&lt;font style=&quot;font-size: 18px;&quot;&gt;DeletedUserResponse&lt;br&gt;&lt;/font&gt;" style="rounded=0;whiteSpace=wrap;html=1;" parent="1" vertex="1"><mxGeometry x="920" y="1735" width="325" height="70" as="geometry"/></mxCell><mxCell id="ez0pkihPe1-qTAPwtO0r-102" style="edgeStyle=orthogonalEdgeStyle;rounded=0;orthogonalLoop=1;jettySize=auto;html=1;fontSize=18;" parent="1" source="ez0pkihPe1-qTAPwtO0r-96" target="ez0pkihPe1-qTAPwtO0r-94" edge="1"><mxGeometry relative="1" as="geometry"/></mxCell><mxCell id="ez0pkihPe1-qTAPwtO0r-96" value="&lt;font style=&quot;font-size: 18px;&quot;&gt;DeleteUserRequest: userId&lt;/font&gt;" style="rounded=0;whiteSpace=wrap;html=1;" parent="1" vertex="1"><mxGeometry x="390" y="1735" width="270" height="70" as="geometry"/></mxCell><mxCell id="ez0pkihPe1-qTAPwtO0r-97" value="Method: DELETE&lt;br&gt;Action: Delete user&lt;br&gt;Requires:&amp;nbsp;&lt;br&gt;- userId: Long&lt;br&gt;Returns: Nothing" style="text;html=1;strokeColor=none;fillColor=none;align=left;verticalAlign=middle;whiteSpace=wrap;rounded=0;fontSize=18;" parent="1" vertex="1"><mxGeometry x="80" y="1710" width="290" height="120" as="geometry"/></mxCell><mxCell id="ez0pkihPe1-qTAPwtO0r-110" style="edgeStyle=orthogonalEdgeStyle;rounded=0;orthogonalLoop=1;jettySize=auto;html=1;fontSize=18;" parent="1" source="ez0pkihPe1-qTAPwtO0r-105" target="ez0pkihPe1-qTAPwtO0r-106" edge="1"><mxGeometry relative="1" as="geometry"/></mxCell><mxCell id="ez0pkihPe1-qTAPwtO0r-105" value="&lt;font style=&quot;font-size: 18px;&quot;&gt;UpdateUser: UserState&lt;/font&gt;" style="rounded=0;whiteSpace=wrap;html=1;" parent="1" vertex="1"><mxGeometry x="690" y="1945" width="195" height="70" as="geometry"/></mxCell><mxCell id="ez0pkihPe1-qTAPwtO0r-106" value="&lt;font style=&quot;font-size: 18px;&quot;&gt;UpdatedUserResponse: UserState&lt;br&gt;(User Entity)&lt;br&gt;&lt;/font&gt;" style="rounded=0;whiteSpace=wrap;html=1;" parent="1" vertex="1"><mxGeometry x="920" y="1945" width="325" height="70" as="geometry"/></mxCell><mxCell id="ez0pkihPe1-qTAPwtO0r-109" style="edgeStyle=orthogonalEdgeStyle;rounded=0;orthogonalLoop=1;jettySize=auto;html=1;fontSize=18;" parent="1" source="ez0pkihPe1-qTAPwtO0r-107" target="ez0pkihPe1-qTAPwtO0r-105" edge="1"><mxGeometry relative="1" as="geometry"/></mxCell><mxCell id="ez0pkihPe1-qTAPwtO0r-107" value="&lt;font style=&quot;font-size: 18px;&quot;&gt;UpdateUserRequest: userId,&amp;nbsp;&lt;/font&gt;&lt;span style=&quot;font-size: 18px;&quot;&gt;name, numGamesOwned, numReviews&lt;/span&gt;" style="rounded=0;whiteSpace=wrap;html=1;" parent="1" vertex="1"><mxGeometry x="390" y="1945" width="270" height="70" as="geometry"/></mxCell><mxCell id="ez0pkihPe1-qTAPwtO0r-108" value="Method: PATCH&lt;br&gt;Action: Update user info&lt;br&gt;Requires:&amp;nbsp;&lt;br&gt;- userId: Long&lt;br&gt;Optional:&lt;br&gt;- name: String&lt;br&gt;- numGamesOwned: Int&lt;br&gt;- numReviews: Int&lt;br&gt;Returns: Modified user state" style="text;html=1;strokeColor=none;fillColor=none;align=left;verticalAlign=middle;whiteSpace=wrap;rounded=0;fontSize=18;" parent="1" vertex="1"><mxGeometry x="80" y="1880" width="290" height="200" as="geometry"/></mxCell><mxCell id="ez0pkihPe1-qTAPwtO0r-111" value="" style="rounded=0;whiteSpace=wrap;html=1;fillColor=none;" parent="1" vertex="1"><mxGeometry x="1340" y="1245" width="1240" height="875" as="geometry"/></mxCell><mxCell id="ez0pkihPe1-qTAPwtO0r-112" value="Game Actions" style="text;strokeColor=none;fillColor=none;html=1;fontSize=24;fontStyle=1;verticalAlign=middle;align=center;" parent="1" vertex="1"><mxGeometry x="1350" y="1260" width="190" height="40" as="geometry"/></mxCell><mxCell id="ez0pkihPe1-qTAPwtO0r-113" style="edgeStyle=orthogonalEdgeStyle;rounded=0;orthogonalLoop=1;jettySize=auto;html=1;entryX=0;entryY=0.5;entryDx=0;entryDy=0;fontSize=18;" parent="1" source="ez0pkihPe1-qTAPwtO0r-114" target="ez0pkihPe1-qTAPwtO0r-115" edge="1"><mxGeometry relative="1" as="geometry"/></mxCell><mxCell id="ez0pkihPe1-qTAPwtO0r-114" value="&lt;font style=&quot;font-size: 18px;&quot;&gt;GetGameInfo: steamAppId&lt;/font&gt;" style="rounded=0;whiteSpace=wrap;html=1;" parent="1" vertex="1"><mxGeometry x="1980" y="1350" width="195" height="70" as="geometry"/></mxCell><mxCell id="ez0pkihPe1-qTAPwtO0r-115" value="&lt;font style=&quot;font-size: 18px;&quot;&gt;GetGameInfoResponse: GameState&lt;br&gt;(Game Entity)&lt;/font&gt;" style="rounded=0;whiteSpace=wrap;html=1;" parent="1" vertex="1"><mxGeometry x="2210" y="1350" width="325" height="70" as="geometry"/></mxCell><mxCell id="ez0pkihPe1-qTAPwtO0r-116" style="edgeStyle=orthogonalEdgeStyle;rounded=0;orthogonalLoop=1;jettySize=auto;html=1;fontSize=18;" parent="1" source="ez0pkihPe1-qTAPwtO0r-117" target="ez0pkihPe1-qTAPwtO0r-114" edge="1"><mxGeometry relative="1" as="geometry"/></mxCell><mxCell id="ez0pkihPe1-qTAPwtO0r-117" value="&lt;font style=&quot;font-size: 18px;&quot;&gt;GetGameInfoRequest: steamAppId&lt;/font&gt;" style="rounded=0;whiteSpace=wrap;html=1;" parent="1" vertex="1"><mxGeometry x="1680" y="1350" width="270" height="70" as="geometry"/></mxCell><mxCell id="ez0pkihPe1-qTAPwtO0r-118" value="Method: GET&lt;br&gt;Action: Get game data&lt;br&gt;Requires:&amp;nbsp;&lt;br&gt;- steamAppId: Long&lt;br&gt;Returns: GameState" style="text;html=1;strokeColor=none;fillColor=none;align=left;verticalAlign=middle;whiteSpace=wrap;rounded=0;fontSize=18;" parent="1" vertex="1"><mxGeometry x="1370" y="1330" width="290" height="110" as="geometry"/></mxCell><mxCell id="ez0pkihPe1-qTAPwtO0r-119" style="edgeStyle=orthogonalEdgeStyle;rounded=0;orthogonalLoop=1;jettySize=auto;html=1;fontSize=18;" parent="1" source="ez0pkihPe1-qTAPwtO0r-120" target="ez0pkihPe1-qTAPwtO0r-121" edge="1"><mxGeometry relative="1" as="geometry"/></mxCell><mxCell id="ez0pkihPe1-qTAPwtO0r-120" value="&lt;font style=&quot;font-size: 18px;&quot;&gt;CreateGame: GameState&lt;/font&gt;" style="rounded=0;whiteSpace=wrap;html=1;" parent="1" vertex="1"><mxGeometry x="1980" y="1545" width="195" height="70" as="geometry"/></mxCell><mxCell id="ez0pkihPe1-qTAPwtO0r-121" value="&lt;font style=&quot;font-size: 18px;&quot;&gt;CreatedGameResponse: ???&lt;br&gt;&lt;/font&gt;" style="rounded=0;whiteSpace=wrap;html=1;" parent="1" vertex="1"><mxGeometry x="2210" y="1545" width="325" height="70" as="geometry"/></mxCell><mxCell id="ez0pkihPe1-qTAPwtO0r-122" style="edgeStyle=orthogonalEdgeStyle;rounded=0;orthogonalLoop=1;jettySize=auto;html=1;fontSize=18;" parent="1" source="ez0pkihPe1-qTAPwtO0r-123" target="ez0pkihPe1-qTAPwtO0r-120" edge="1"><mxGeometry relative="1" as="geometry"/></mxCell><mxCell id="ez0pkihPe1-qTAPwtO0r-123" value="&lt;font style=&quot;font-size: 18px;&quot;&gt;CreateGameRequest: &lt;br&gt;steamAppName&lt;/font&gt;" style="rounded=0;whiteSpace=wrap;html=1;" parent="1" vertex="1"><mxGeometry x="1680" y="1545" width="270" height="70" as="geometry"/></mxCell><mxCell id="ez0pkihPe1-qTAPwtO0r-124" value="Method: POST&lt;br&gt;Action: Submit game&lt;br&gt;Requires:&amp;nbsp;&lt;br&gt;- steamAppName: String&lt;br&gt;Returns: ???" style="text;html=1;strokeColor=none;fillColor=none;align=left;verticalAlign=middle;whiteSpace=wrap;rounded=0;fontSize=18;" parent="1" vertex="1"><mxGeometry x="1370" y="1520" width="290" height="120" as="geometry"/></mxCell><mxCell id="ez0pkihPe1-qTAPwtO0r-125" style="edgeStyle=orthogonalEdgeStyle;rounded=0;orthogonalLoop=1;jettySize=auto;html=1;fontSize=18;" parent="1" source="ez0pkihPe1-qTAPwtO0r-126" target="ez0pkihPe1-qTAPwtO0r-127" edge="1"><mxGeometry relative="1" as="geometry"/></mxCell><mxCell id="ez0pkihPe1-qTAPwtO0r-126" value="&lt;font style=&quot;font-size: 18px;&quot;&gt;DeleteGame: steamAppId&lt;/font&gt;" style="rounded=0;whiteSpace=wrap;html=1;" parent="1" vertex="1"><mxGeometry x="1980" y="1735" width="195" height="70" as="geometry"/></mxCell><mxCell id="ez0pkihPe1-qTAPwtO0r-127" value="&lt;font style=&quot;font-size: 18px;&quot;&gt;DeletedGameResponse&lt;br&gt;&lt;/font&gt;" style="rounded=0;whiteSpace=wrap;html=1;" parent="1" vertex="1"><mxGeometry x="2210" y="1735" width="325" height="70" as="geometry"/></mxCell><mxCell id="ez0pkihPe1-qTAPwtO0r-128" style="edgeStyle=orthogonalEdgeStyle;rounded=0;orthogonalLoop=1;jettySize=auto;html=1;fontSize=18;" parent="1" source="ez0pkihPe1-qTAPwtO0r-129" target="ez0pkihPe1-qTAPwtO0r-126" edge="1"><mxGeometry relative="1" as="geometry"/></mxCell><mxCell id="ez0pkihPe1-qTAPwtO0r-129" value="&lt;font style=&quot;font-size: 18px;&quot;&gt;DeleteGameRequest: steamAppId&lt;/font&gt;" style="rounded=0;whiteSpace=wrap;html=1;" parent="1" vertex="1"><mxGeometry x="1680" y="1735" width="270" height="70" as="geometry"/></mxCell><mxCell id="ez0pkihPe1-qTAPwtO0r-130" value="Method: DELETE&lt;br&gt;Action: Delete game&lt;br&gt;Requires:&amp;nbsp;&lt;br&gt;- steamAppId: Long&lt;br&gt;Returns: Nothing" style="text;html=1;strokeColor=none;fillColor=none;align=left;verticalAlign=middle;whiteSpace=wrap;rounded=0;fontSize=18;" parent="1" vertex="1"><mxGeometry x="1370" y="1710" width="290" height="120" as="geometry"/></mxCell><mxCell id="ez0pkihPe1-qTAPwtO0r-131" style="edgeStyle=orthogonalEdgeStyle;rounded=0;orthogonalLoop=1;jettySize=auto;html=1;fontSize=18;" parent="1" source="ez0pkihPe1-qTAPwtO0r-132" target="ez0pkihPe1-qTAPwtO0r-133" edge="1"><mxGeometry relative="1" as="geometry"/></mxCell><mxCell id="ez0pkihPe1-qTAPwtO0r-132" value="&lt;font style=&quot;font-size: 18px;&quot;&gt;UpdateGame: GameState&lt;/font&gt;" style="rounded=0;whiteSpace=wrap;html=1;" parent="1" vertex="1"><mxGeometry x="1980" y="1945" width="195" height="70" as="geometry"/></mxCell><mxCell id="ez0pkihPe1-qTAPwtO0r-133" value="&lt;font style=&quot;font-size: 18px;&quot;&gt;UpdatedGameResponse: GameState&lt;br&gt;(Game Entity)&lt;br&gt;&lt;/font&gt;" style="rounded=0;whiteSpace=wrap;html=1;" parent="1" vertex="1"><mxGeometry x="2210" y="1945" width="325" height="70" as="geometry"/></mxCell><mxCell id="ez0pkihPe1-qTAPwtO0r-134" style="edgeStyle=orthogonalEdgeStyle;rounded=0;orthogonalLoop=1;jettySize=auto;html=1;fontSize=18;" parent="1" source="ez0pkihPe1-qTAPwtO0r-135" target="ez0pkihPe1-qTAPwtO0r-132" edge="1"><mxGeometry relative="1" as="geometry"/></mxCell><mxCell id="ez0pkihPe1-qTAPwtO0r-135" value="&lt;font style=&quot;font-size: 18px;&quot;&gt;UpdateGameRequest: steamAppId,&amp;nbsp;&lt;/font&gt;&lt;span style=&quot;font-size: 18px;&quot;&gt;steamAppName&lt;/span&gt;" style="rounded=0;whiteSpace=wrap;html=1;" parent="1" vertex="1"><mxGeometry x="1680" y="1945" width="270" height="70" as="geometry"/></mxCell><mxCell id="ez0pkihPe1-qTAPwtO0r-136" value="Method: PATCH&lt;br&gt;Action: Update game info&lt;br&gt;Requires:&amp;nbsp;&lt;br&gt;- steamAppId: Long&lt;br&gt;- steamAppName: String&lt;br&gt;Returns: Modified game state" style="text;html=1;strokeColor=none;fillColor=none;align=left;verticalAlign=middle;whiteSpace=wrap;rounded=0;fontSize=18;" parent="1" vertex="1"><mxGeometry x="1370" y="1880" width="290" height="200" as="geometry"/></mxCell><mxCell id="ez0pkihPe1-qTAPwtO0r-139" value="" style="rounded=0;whiteSpace=wrap;html=1;fillColor=none;" parent="1" vertex="1"><mxGeometry x="50" y="2180" width="2530" height="1140" as="geometry"/></mxCell><mxCell id="ez0pkihPe1-qTAPwtO0r-140" value="Review Actions" style="text;strokeColor=none;fillColor=none;html=1;fontSize=24;fontStyle=1;verticalAlign=middle;align=center;" parent="1" vertex="1"><mxGeometry x="60" y="2195" width="190" height="40" as="geometry"/></mxCell><mxCell id="ez0pkihPe1-qTAPwtO0r-141" style="edgeStyle=orthogonalEdgeStyle;rounded=0;orthogonalLoop=1;jettySize=auto;html=1;entryX=0;entryY=0.5;entryDx=0;entryDy=0;fontSize=18;" parent="1" source="ez0pkihPe1-qTAPwtO0r-142" target="ez0pkihPe1-qTAPwtO0r-143" edge="1"><mxGeometry relative="1" as="geometry"/></mxCell><mxCell id="ez0pkihPe1-qTAPwtO0r-142" value="&lt;font style=&quot;font-size: 18px;&quot;&gt;GetReviewInfo: reviewId&lt;/font&gt;" style="rounded=0;whiteSpace=wrap;html=1;" parent="1" vertex="1"><mxGeometry x="690" y="2285" width="195" height="70" as="geometry"/></mxCell><mxCell id="ez0pkihPe1-qTAPwtO0r-143" value="&lt;font style=&quot;font-size: 18px;&quot;&gt;GetReviewInfoResponse: ReviewState&lt;br&gt;(Review Entity)&lt;/font&gt;" style="rounded=0;whiteSpace=wrap;html=1;" parent="1" vertex="1"><mxGeometry x="920" y="2285" width="325" height="70" as="geometry"/></mxCell><mxCell id="ez0pkihPe1-qTAPwtO0r-144" style="edgeStyle=orthogonalEdgeStyle;rounded=0;orthogonalLoop=1;jettySize=auto;html=1;fontSize=18;" parent="1" source="ez0pkihPe1-qTAPwtO0r-145" target="ez0pkihPe1-qTAPwtO0r-142" edge="1"><mxGeometry relative="1" as="geometry"/></mxCell><mxCell id="ez0pkihPe1-qTAPwtO0r-145" value="&lt;font style=&quot;font-size: 18px;&quot;&gt;GetReviewInfoRequest: reviewId&lt;/font&gt;" style="rounded=0;whiteSpace=wrap;html=1;" parent="1" vertex="1"><mxGeometry x="390" y="2285" width="270" height="70" as="geometry"/></mxCell><mxCell id="ez0pkihPe1-qTAPwtO0r-147" value="Method: GET&lt;br&gt;Action: Get review data&lt;br&gt;Requires:&amp;nbsp;&lt;br&gt;- reviewId: Long&lt;br&gt;Returns: ReviewState" style="text;html=1;strokeColor=none;fillColor=none;align=left;verticalAlign=middle;whiteSpace=wrap;rounded=0;fontSize=18;" parent="1" vertex="1"><mxGeometry x="80" y="2265" width="290" height="110" as="geometry"/></mxCell><mxCell id="ez0pkihPe1-qTAPwtO0r-148" style="edgeStyle=orthogonalEdgeStyle;rounded=0;orthogonalLoop=1;jettySize=auto;html=1;fontSize=18;" parent="1" source="ez0pkihPe1-qTAPwtO0r-149" target="ez0pkihPe1-qTAPwtO0r-150" edge="1"><mxGeometry relative="1" as="geometry"/></mxCell><mxCell id="ez0pkihPe1-qTAPwtO0r-149" value="&lt;font style=&quot;font-size: 18px;&quot;&gt;CreateReview: ReviewState&lt;/font&gt;" style="rounded=0;whiteSpace=wrap;html=1;" parent="1" vertex="1"><mxGeometry x="690" y="2657.5" width="195" height="70" as="geometry"/></mxCell><mxCell id="ez0pkihPe1-qTAPwtO0r-150" value="&lt;font style=&quot;font-size: 18px;&quot;&gt;CreatedReviewResponse: ???&lt;br&gt;&lt;/font&gt;" style="rounded=0;whiteSpace=wrap;html=1;" parent="1" vertex="1"><mxGeometry x="920" y="2657.5" width="325" height="70" as="geometry"/></mxCell><mxCell id="ez0pkihPe1-qTAPwtO0r-151" style="edgeStyle=orthogonalEdgeStyle;rounded=0;orthogonalLoop=1;jettySize=auto;html=1;fontSize=18;" parent="1" source="ez0pkihPe1-qTAPwtO0r-152" target="ez0pkihPe1-qTAPwtO0r-149" edge="1"><mxGeometry relative="1" as="geometry"/></mxCell><mxCell id="ez0pkihPe1-qTAPwtO0r-152" value="&lt;font style=&quot;font-size: 18px;&quot;&gt;CreateReviewRequest&lt;br&gt;&lt;/font&gt;" style="rounded=0;whiteSpace=wrap;html=1;" parent="1" vertex="1"><mxGeometry x="390" y="2657.5" width="270" height="70" as="geometry"/></mxCell><mxCell id="ez0pkihPe1-qTAPwtO0r-153" value="Method: POST&lt;br&gt;Action: Submit game&lt;br&gt;Requires:&amp;nbsp;&lt;br&gt;&lt;span style=&quot;&quot;&gt;- steamAppId: Long&lt;/span&gt;&lt;br style=&quot;padding: 0px; margin: 0px;&quot;&gt;&lt;span style=&quot;&quot;&gt;- authorId: Long&lt;/span&gt;&lt;br style=&quot;padding: 0px; margin: 0px;&quot;&gt;&lt;span style=&quot;&quot;&gt;- region: String&lt;br&gt;- review: String&lt;br&gt;&lt;/span&gt;Optional:&lt;br style=&quot;padding: 0px; margin: 0px;&quot;&gt;&lt;span style=&quot;&quot;&gt;- recommended: Boolean&lt;/span&gt;&lt;br style=&quot;padding: 0px; margin: 0px;&quot;&gt;&lt;span style=&quot;&quot;&gt;- votesHelpful: Long&lt;/span&gt;&lt;br style=&quot;padding: 0px; margin: 0px;&quot;&gt;&lt;span style=&quot;&quot;&gt;- votesFunny: Long&lt;/span&gt;&lt;br style=&quot;padding: 0px; margin: 0px;&quot;&gt;&lt;span style=&quot;&quot;&gt;- weightedVoteScore: Double&lt;/span&gt;&lt;br style=&quot;padding: 0px; margin: 0px;&quot;&gt;&lt;span style=&quot;&quot;&gt;- commentCount: Long&lt;/span&gt;&lt;br style=&quot;padding: 0px; margin: 0px;&quot;&gt;&lt;span style=&quot;&quot;&gt;- steamPurchase: Boolean&lt;/span&gt;&lt;br style=&quot;padding: 0px; margin: 0px;&quot;&gt;&lt;span style=&quot;&quot;&gt;- receivedForFree: Boolean&lt;/span&gt;&lt;br style=&quot;padding: 0px; margin: 0px;&quot;&gt;&lt;span style=&quot;&quot;&gt;- writtenDuringEarlyAccess: Boolean&lt;/span&gt;&lt;br style=&quot;padding: 0px; margin: 0px;&quot;&gt;&lt;span style=&quot;&quot;&gt;- authorPlaytimeForever: Double&lt;/span&gt;&lt;br style=&quot;padding: 0px; margin: 0px;&quot;&gt;&lt;span style=&quot;&quot;&gt;- authorPlaytimeLastTwoWeeks: Double&lt;/span&gt;&lt;br style=&quot;padding: 0px; margin: 0px;&quot;&gt;&lt;span style=&quot;&quot;&gt;- authorPlaytimeAtReview: Double&lt;/span&gt;&lt;br style=&quot;padding: 0px; margin: 0px;&quot;&gt;&lt;span style=&quot;&quot;&gt;- authorLastPlayed: Long&lt;/span&gt;&lt;br&gt;Returns: ???" style="text;html=1;strokeColor=none;fillColor=none;align=left;verticalAlign=middle;whiteSpace=wrap;rounded=0;fontSize=18;" parent="1" vertex="1"><mxGeometry x="80" y="2455" width="300" height="475" as="geometry"/></mxCell><mxCell id="ez0pkihPe1-qTAPwtO0r-154" style="edgeStyle=orthogonalEdgeStyle;rounded=0;orthogonalLoop=1;jettySize=auto;html=1;fontSize=18;" parent="1" source="ez0pkihPe1-qTAPwtO0r-155" target="ez0pkihPe1-qTAPwtO0r-156" edge="1"><mxGeometry relative="1" as="geometry"/></mxCell><mxCell id="ez0pkihPe1-qTAPwtO0r-155" value="&lt;font style=&quot;font-size: 18px;&quot;&gt;DeleteReview: reviewId&lt;/font&gt;" style="rounded=0;whiteSpace=wrap;html=1;" parent="1" vertex="1"><mxGeometry x="1980" y="2260" width="195" height="70" as="geometry"/></mxCell><mxCell id="ez0pkihPe1-qTAPwtO0r-156" value="&lt;font style=&quot;font-size: 18px;&quot;&gt;DeletedReviewResponse&lt;br&gt;&lt;/font&gt;" style="rounded=0;whiteSpace=wrap;html=1;" parent="1" vertex="1"><mxGeometry x="2210" y="2260" width="325" height="70" as="geometry"/></mxCell><mxCell id="ez0pkihPe1-qTAPwtO0r-157" style="edgeStyle=orthogonalEdgeStyle;rounded=0;orthogonalLoop=1;jettySize=auto;html=1;fontSize=18;" parent="1" source="ez0pkihPe1-qTAPwtO0r-158" target="ez0pkihPe1-qTAPwtO0r-155" edge="1"><mxGeometry relative="1" as="geometry"/></mxCell><mxCell id="ez0pkihPe1-qTAPwtO0r-158" value="&lt;font style=&quot;font-size: 18px;&quot;&gt;DeleteReviewRequest: reviewId&lt;/font&gt;" style="rounded=0;whiteSpace=wrap;html=1;" parent="1" vertex="1"><mxGeometry x="1680" y="2260" width="270" height="70" as="geometry"/></mxCell><mxCell id="ez0pkihPe1-qTAPwtO0r-159" value="Method: DELETE&lt;br&gt;Action: Delete review&lt;br&gt;Requires:&amp;nbsp;&lt;br&gt;- reviewId: Long&lt;br&gt;Returns: Nothing" style="text;html=1;strokeColor=none;fillColor=none;align=left;verticalAlign=middle;whiteSpace=wrap;rounded=0;fontSize=18;" parent="1" vertex="1"><mxGeometry x="1370" y="2235" width="290" height="120" as="geometry"/></mxCell><mxCell id="ez0pkihPe1-qTAPwtO0r-160" style="edgeStyle=orthogonalEdgeStyle;rounded=0;orthogonalLoop=1;jettySize=auto;html=1;fontSize=18;" parent="1" source="ez0pkihPe1-qTAPwtO0r-161" target="ez0pkihPe1-qTAPwtO0r-162" edge="1"><mxGeometry relative="1" as="geometry"/></mxCell><mxCell id="ez0pkihPe1-qTAPwtO0r-161" value="&lt;font style=&quot;font-size: 18px;&quot;&gt;UpdateReview: ReviewState&lt;/font&gt;" style="rounded=0;whiteSpace=wrap;html=1;" parent="1" vertex="1"><mxGeometry x="1980" y="2652.5" width="195" height="70" as="geometry"/></mxCell><mxCell id="ez0pkihPe1-qTAPwtO0r-162" value="&lt;font style=&quot;font-size: 18px;&quot;&gt;UpdatedReviewResponse: ReviewState&lt;br&gt;(Review Entity)&lt;br&gt;&lt;/font&gt;" style="rounded=0;whiteSpace=wrap;html=1;" parent="1" vertex="1"><mxGeometry x="2210" y="2652.5" width="325" height="70" as="geometry"/></mxCell><mxCell id="ez0pkihPe1-qTAPwtO0r-163" style="edgeStyle=orthogonalEdgeStyle;rounded=0;orthogonalLoop=1;jettySize=auto;html=1;fontSize=18;" parent="1" source="ez0pkihPe1-qTAPwtO0r-164" target="ez0pkihPe1-qTAPwtO0r-161" edge="1"><mxGeometry relative="1" as="geometry"/></mxCell><mxCell id="ez0pkihPe1-qTAPwtO0r-164" value="&lt;font style=&quot;font-size: 18px;&quot;&gt;UpdateReviewRequest&lt;/font&gt;" style="rounded=0;whiteSpace=wrap;html=1;" parent="1" vertex="1"><mxGeometry x="1680" y="2652.5" width="270" height="70" as="geometry"/></mxCell><mxCell id="ez0pkihPe1-qTAPwtO0r-165" value="Method: PATCH&lt;br&gt;Action: Update review info&lt;br&gt;Requires:&amp;nbsp;&lt;br&gt;- reviewId: Long&lt;br&gt;Optional:&lt;br&gt;- review: String&lt;br style=&quot;padding: 0px; margin: 0px;&quot;&gt;- recommended: Boolean&lt;br style=&quot;padding: 0px; margin: 0px;&quot;&gt;- votesHelpful: Long&lt;br style=&quot;padding: 0px; margin: 0px;&quot;&gt;- votesFunny: Long&lt;br style=&quot;padding: 0px; margin: 0px;&quot;&gt;- weightedVoteScore: Double&lt;br style=&quot;padding: 0px; margin: 0px;&quot;&gt;- commentCount: Long&lt;br style=&quot;padding: 0px; margin: 0px;&quot;&gt;- steamPurchase: Boolean&lt;br style=&quot;padding: 0px; margin: 0px;&quot;&gt;- receivedForFree: Boolean&lt;br style=&quot;padding: 0px; margin: 0px;&quot;&gt;- writtenDuringEarlyAccess: Boolean&lt;br style=&quot;padding: 0px; margin: 0px;&quot;&gt;- authorPlaytimeForever: Double&lt;br style=&quot;padding: 0px; margin: 0px;&quot;&gt;- authorPlaytimeLastTwoWeeks: Double&lt;br style=&quot;padding: 0px; margin: 0px;&quot;&gt;- authorPlaytimeAtReview: Double&lt;br style=&quot;padding: 0px; margin: 0px;&quot;&gt;- authorLastPlayed: Long&lt;br&gt;Returns: Modified game state" style="text;html=1;strokeColor=none;fillColor=none;align=left;verticalAlign=middle;whiteSpace=wrap;rounded=0;fontSize=18;" parent="1" vertex="1"><mxGeometry x="1364" y="2455" width="290" height="465" as="geometry"/></mxCell><mxCell id="ez0pkihPe1-qTAPwtO0r-166" value="&lt;font style=&quot;font-size: 18px;&quot;&gt;GetAllReviewsByAuthor: authorId&lt;/font&gt;" style="rounded=0;whiteSpace=wrap;html=1;" parent="1" vertex="1"><mxGeometry x="690" y="3010" width="195" height="70" as="geometry"/></mxCell><mxCell id="ez0pkihPe1-qTAPwtO0r-167" value="&lt;font style=&quot;font-size: 18px;&quot;&gt;GetAllReviewsByAuthorResponse: List[ReviewState]&lt;br&gt;&lt;/font&gt;" style="rounded=0;whiteSpace=wrap;html=1;" parent="1" vertex="1"><mxGeometry x="920" y="3010" width="325" height="70" as="geometry"/></mxCell><mxCell id="ez0pkihPe1-qTAPwtO0r-168" value="&lt;font style=&quot;font-size: 18px;&quot;&gt;GetAllReviewsByAuthorRequest: authorId&lt;/font&gt;" style="rounded=0;whiteSpace=wrap;html=1;" parent="1" vertex="1"><mxGeometry x="390" y="3010" width="270" height="70" as="geometry"/></mxCell><mxCell id="ez0pkihPe1-qTAPwtO0r-169" value="Method: GET&lt;br&gt;Action: Get all reviews by author&lt;br&gt;Requires:&amp;nbsp;&lt;br&gt;- authorId: Long&lt;br&gt;Returns: List[ReviewState]" style="text;html=1;strokeColor=none;fillColor=none;align=left;verticalAlign=middle;whiteSpace=wrap;rounded=0;fontSize=18;" parent="1" vertex="1"><mxGeometry x="80" y="2990" width="290" height="110" as="geometry"/></mxCell><mxCell id="ez0pkihPe1-qTAPwtO0r-170" value="&lt;font style=&quot;font-size: 18px;&quot;&gt;GetAllReviewsByAuthor:&amp;nbsp;&lt;br&gt;&lt;/font&gt;&lt;span style=&quot;font-size: 18px; text-align: left;&quot;&gt;steamAppId&lt;/span&gt;" style="rounded=0;whiteSpace=wrap;html=1;" parent="1" vertex="1"><mxGeometry x="690" y="3190" width="195" height="70" as="geometry"/></mxCell><mxCell id="ez0pkihPe1-qTAPwtO0r-171" value="&lt;font style=&quot;font-size: 18px;&quot;&gt;GetAllReviewsByAuthorResponse: List[ReviewState]&lt;br&gt;&lt;/font&gt;" style="rounded=0;whiteSpace=wrap;html=1;" parent="1" vertex="1"><mxGeometry x="920" y="3190" width="325" height="70" as="geometry"/></mxCell><mxCell id="ez0pkihPe1-qTAPwtO0r-172" value="&lt;font style=&quot;font-size: 18px;&quot;&gt;GetAllReviewsByGameRequest:&amp;nbsp;&lt;br&gt;&lt;/font&gt;&lt;span style=&quot;font-size: 18px; text-align: left;&quot;&gt;steamAppId&lt;/span&gt;" style="rounded=0;whiteSpace=wrap;html=1;" parent="1" vertex="1"><mxGeometry x="390" y="3190" width="270" height="70" as="geometry"/></mxCell><mxCell id="ez0pkihPe1-qTAPwtO0r-173" value="Method: GET&lt;br&gt;Action: Get all reviews by game&lt;br&gt;Requires:&amp;nbsp;&lt;br&gt;- steamAppId: Long&lt;br&gt;Returns: List[ReviewState]" style="text;html=1;strokeColor=none;fillColor=none;align=left;verticalAlign=middle;whiteSpace=wrap;rounded=0;fontSize=18;" parent="1" vertex="1"><mxGeometry x="80" y="3170" width="290" height="110" as="geometry"/></mxCell><mxCell id="7" value="SteamManagerActor" style="shape=umlActor;verticalLabelPosition=bottom;verticalAlign=top;html=1;outlineConnect=0;" parent="1" vertex="1"><mxGeometry x="1970" y="272" width="50" height="100" as="geometry"/></mxCell><mxCell id="10" style="edgeStyle=orthogonalEdgeStyle;rounded=0;orthogonalLoop=1;jettySize=auto;html=1;entryX=0.5;entryY=0;entryDx=0;entryDy=0;entryPerimeter=0;" edge="1" parent="1" source="8" target="7"><mxGeometry relative="1" as="geometry"/></mxCell><mxCell id="8" value="CSVLoaderActor" style="shape=umlActor;verticalLabelPosition=bottom;verticalAlign=top;html=1;outlineConnect=0;" parent="1" vertex="1"><mxGeometry x="1970" y="105" width="50" height="100" as="geometry"/></mxCell></root></mxGraphModel></diagram></mxfile>